<svg width="252" height="396" viewBox="0 0 252 396" fill="none" xmlns="http://www.w3.org/2000/svg">
<path d="M234.559 151.334L234.517 151.336L224.17 96.813C239.552 89.11 250.16 73.238 250.16 54.895C250.16 29.037 229.123 8 203.267 8C177.409 8 156.368 29.037 156.368 54.897C156.368 80.755 177.408 101.794 203.268 101.794C203.916 101.794 204.55 101.721 205.195 101.694L215.167 154.235C187.907 162.56 168.018 187.93 168.018 217.878C168.018 239.921 178.835 259.437 195.394 271.554L173.615 308.431C158.193 299.867 140.84 295.382 123.199 295.399C65.685 295.399 18.896 342.189 18.896 399.699C18.896 457.21 65.686 504 123.2 504C180.714 504 227.5 457.21 227.5 399.7C227.5 367.484 212.814 338.64 189.79 319.492L212.72 280.665C219.572 283.056 226.9 284.423 234.56 284.423C271.252 284.423 301.103 254.572 301.103 217.88C301.103 181.184 271.25 151.333 234.558 151.333L234.559 151.334ZM207.948 399.699C207.948 446.426 169.93 484.445 123.198 484.445C76.467 484.445 38.448 446.426 38.448 399.699C38.448 352.969 76.467 314.951 123.198 314.951C169.93 314.951 207.948 352.97 207.948 399.699ZM203.268 85.498C186.393 85.498 172.664 71.771 172.664 54.897C172.664 38.023 186.393 24.296 203.267 24.296C220.142 24.296 233.867 38.023 233.867 54.896C233.867 71.771 220.14 85.498 203.267 85.498H203.268ZM234.558 264.868C208.648 264.868 187.569 243.788 187.569 217.878C187.569 191.967 208.649 170.888 234.559 170.888C260.469 170.888 281.549 191.969 281.549 217.878C281.551 243.788 260.469 264.868 234.559 264.868H234.558Z" fill="white"/>
</svg>
