<svg width="378" height="397" viewBox="0 0 378 397" fill="none" xmlns="http://www.w3.org/2000/svg">
<path d="M152.415 -107C151.658 -100.378 151.469 -93.567 151.469 -86.945C151.279 -32.927 172.471 17.781 210.879 56C250.707 95.639 303.117 115.41 355.621 115.41C360.446 115.41 365.364 115.22 370.188 114.842C368.202 96.773 364.514 79.082 358.932 62.432C318.726 63.378 278.519 48.62 248.152 18.536C219.771 -9.65501 204.257 -47.116 204.446 -86.754C204.446 -89.498 204.635 -92.242 204.635 -94.702C187.985 -100.567 170.484 -104.824 152.415 -107ZM85.815 -106.621C67.935 -104.067 50.811 -99.621 34.351 -93.567C57.812 -17.791 100.005 51.931 158.091 109.827C215.041 166.589 282.587 206.607 354.485 230.257C360.729 213.891 365.553 196.863 368.296 178.983C305.102 157.793 245.692 122.221 195.553 72.271C144.28 21.186 107.006 -39.832 85.815 -106.62V-106.621ZM260.26 -67.173C252.692 -57.996 248.435 -46.55 248.435 -34.535C248.151 -20.723 253.639 -7.763 263.383 1.981C273.127 11.725 285.897 17.117 299.709 17.117H299.899C311.724 17.117 322.793 13.24 331.969 5.861C313.333 -23.087 288.83 -48.158 260.26 -67.173ZM-33.667 -54.969C-47.479 -43.9 -60.25 -31.509 -71.507 -17.885L278.52 334.792C292.522 323.724 304.914 311.047 315.983 297.33L-33.667 -54.969ZM-112.377 53.256C-118.657 69.8758 -123.097 87.1334 -125.62 104.72C-60.723 125.911 0.296021 161.859 51.57 212.944C101.71 262.894 138.415 322.494 159.984 387.391C177.864 384.647 194.986 380.012 211.258 373.579C187.323 299.6 145.983 231.771 89.033 175.199C30.568 117.397 -38.587 76.812 -112.376 53.256H-112.377ZM-104.286 169.904C-111.595 169.768 -118.906 170.019 -126.188 170.657C-124.013 188.727 -119.945 206.227 -114.175 222.877C-73.401 221.363 -31.965 235.933 -0.934982 266.773C27.445 294.964 42.96 332.428 42.771 372.066C42.771 373.769 42.771 375.754 42.582 377.552C59.5679 383.32 77.1482 387.16 94.992 389C95.371 383.513 95.748 377.93 95.748 372.254C95.843 318.426 74.842 267.53 36.433 229.311C-2.30699 190.737 -53.143 170.851 -104.286 169.904ZM-52.778 268.192C-64.981 268.192 -76.523 272.45 -85.794 280.207C-66.59 308.777 -41.519 333.089 -12.381 351.537C-5.19098 342.643 -1.31398 331.48 -1.31398 319.844C-1.31398 306.032 -6.51698 292.978 -16.261 283.328C-26.005 273.584 -38.775 268.192 -52.587 268.192H-52.778Z" fill="white"/>
</svg>
