<svg width="734" height="663" viewBox="0 0 734 663" fill="none" xmlns="http://www.w3.org/2000/svg">
<path d="M175.208 120.564C192.201 120.644 205.279 108.842 205.279 93.3729C205.279 78.0126 192.081 66.076 175.178 66.1835C159.074 66.3181 145.402 78.5202 145.015 93.0531C144.69 107.691 158.749 120.509 175.207 120.562L175.208 120.564ZM676.711 395.055C660.044 395.055 646.253 407.499 646.461 422.404C646.667 436.882 660.22 449.113 676.354 449.487C692.725 449.808 706.605 437.364 706.634 422.297C706.667 406.829 693.732 395.081 676.709 395.053L676.711 395.055ZM558.525 120.562C575.46 120.534 588.509 108.52 588.301 93.1308C588.153 77.8248 574.719 65.9413 557.814 66.2094C541.741 66.4774 528.127 78.8672 528.038 93.3716C527.95 108.118 541.947 120.615 558.525 120.562ZM366.792 598.254C350.125 598.307 336.216 610.859 336.513 625.577C336.839 640.054 350.511 652.339 366.556 652.633C382.956 652.954 396.747 640.51 396.776 625.363C396.807 609.895 383.905 598.201 366.792 598.254ZM467.33 583.99C450.752 584.096 437.405 596.166 437.435 610.965C437.467 625.604 451.077 637.913 467.419 637.994C484.146 638.101 497.669 625.765 497.491 610.457C497.342 595.47 484.145 583.883 467.33 583.989V583.99ZM693.021 304.387C676.414 304.305 662.889 316.054 662.534 330.827C662.208 345.573 676.503 358.632 692.814 358.525C709.096 358.418 722.531 346.134 722.531 331.334C722.62 316.268 709.689 304.439 693.022 304.387H693.021ZM103.468 477.186C86.6808 477.133 73.7211 488.641 73.5735 503.761C73.4244 519.041 87.0966 531.538 103.705 531.325C119.927 531.11 133.509 518.586 133.452 504.002C133.361 489.229 119.988 477.186 103.468 477.186ZM102.905 185.701C119.305 185.995 133.541 173.204 133.422 158.298C133.244 143.471 119.899 131.59 103.379 131.59C86.5346 131.618 73.6624 143.151 73.5749 158.271C73.4846 173.231 86.5346 185.434 102.905 185.702V185.701ZM467.451 78.8698C484.029 78.9501 497.613 66.5862 497.493 51.4654C497.375 36.3459 483.762 24.4093 466.887 24.6773C450.695 24.9182 437.319 37.3624 437.498 51.9743C437.646 66.4787 451.318 78.7623 467.451 78.8698ZM87.2442 422.326C87.3933 407.579 74.1354 395.35 57.705 395.055C40.9205 394.761 27.0118 406.938 26.8627 422.003C26.7738 436.562 40.1191 449.006 56.4306 449.488C72.7133 449.943 87.0966 437.285 87.2442 422.326ZM630.237 185.485C646.46 185.672 660.25 173.442 660.369 158.724C660.517 143.845 647.321 131.802 630.741 131.695C614.133 131.615 600.729 143.416 600.55 158.242C600.373 172.881 613.925 185.325 630.237 185.486V185.485ZM70.755 331.15C70.6948 316.111 57.705 304.443 40.9793 304.497C24.341 304.523 11.3813 316.352 11.4688 331.418C11.5591 346.351 24.9044 358.447 41.2732 358.34C57.6749 358.261 70.7837 346.138 70.7536 331.15H70.755ZM366.763 64.3123C383.134 64.4198 396.511 52.377 396.539 37.4427C396.628 22.3763 383.668 10.4682 367.119 10.3607C350.749 10.2804 337.224 22.3504 337.077 37.1487C336.988 51.8681 350.481 64.232 366.763 64.3123ZM630.237 477.24C613.807 477.347 600.343 489.632 600.55 504.323C600.699 518.961 614.638 531.352 630.741 531.164C647.024 530.949 660.517 518.532 660.369 503.841C660.25 489.041 646.786 477.133 630.237 477.24ZM646.786 240.107C646.489 254.584 660.22 267.243 676.354 267.43C692.665 267.645 706.398 255.522 706.517 240.776C706.634 225.897 693.525 213.666 677.155 213.454C660.902 213.293 647.083 225.389 646.786 240.107ZM57.2018 267.43C73.6609 267.404 86.7396 255.307 86.6808 240.295C86.6493 225.309 73.4531 213.399 56.9624 213.507C40.4145 213.587 27.3659 225.524 27.4548 240.563C27.4863 255.522 40.7413 267.51 57.2004 267.431L57.2018 267.43ZM266.373 78.7351C282.802 78.629 296.001 66.5059 295.911 51.5457C295.852 36.5051 282.655 24.676 266.107 24.7576C249.557 24.8638 236.537 36.7745 236.597 51.7865C236.686 66.7196 250.032 78.8426 266.373 78.7338V78.7351ZM175.208 542.352C158.689 542.458 145.283 554.609 145.49 569.327C145.728 584.207 159.074 595.955 175.681 595.847C192.35 595.74 205.22 583.993 205.101 568.899C204.954 553.886 191.875 542.272 175.208 542.352ZM558.379 542.381C541.771 542.352 528.603 554.183 528.632 569.143C528.692 584.076 541.83 595.876 558.468 595.851C575.165 595.851 588.064 584.182 588.064 569.088C588.064 554.022 575.194 542.381 558.378 542.381H558.379ZM266.611 584.155C249.914 583.968 236.775 595.529 236.597 610.515C236.421 625.556 249.292 637.491 265.87 637.706C282.418 637.921 295.674 626.172 295.912 611.212C296.12 596.198 283.248 584.291 266.61 584.156L266.611 584.155ZM466.056 110.636C466.411 122.919 478.185 133.33 491.68 133.383C505.826 133.412 517.096 122.866 517.007 109.887C516.888 97.3354 505.53 87.0861 491.68 87.0861C477.977 87.0861 465.67 98.4063 466.056 110.636ZM121.883 421.201C107.499 421.201 96.8522 430.835 96.8235 443.868C96.8235 456.74 107.588 466.749 121.676 466.99C135.763 467.231 147.715 456.393 147.477 443.601C147.24 430.836 136.209 421.202 121.883 421.202V421.201ZM172.656 133.167C158.57 133.115 147.123 143.042 146.856 155.567C146.558 168.118 158.6 178.849 172.835 178.689C186.893 178.581 198.014 168.44 197.985 155.808C197.954 143.176 186.774 133.194 172.658 133.167H172.656ZM638.511 269.491C624.929 269.437 613.008 280.088 612.977 292.373C612.917 304.655 624.78 315.468 638.364 315.468C652.006 315.493 663.839 304.87 663.929 292.586C663.96 280.25 652.185 269.544 638.511 269.491ZM172.598 529.693C186.298 529.693 197.925 519.121 197.925 506.678C197.925 494.154 186.417 483.743 172.598 483.743C158.925 483.743 147.062 494.368 147.032 506.678C147.001 518.908 158.984 529.693 172.598 529.693ZM638.511 392.861C652.51 392.861 663.986 382.611 664.076 370.194C664.076 357.723 652.718 347.447 638.779 347.339C624.366 347.179 612.533 357.696 612.77 370.328C612.979 382.745 624.604 392.888 638.513 392.86L638.511 392.861ZM409.854 553.43C396.006 553.459 384.379 563.867 384.291 576.15C384.172 588.568 395.649 598.897 409.558 599.005C423.704 599.111 435.182 589.29 435.509 576.819C435.805 564.054 424.031 553.403 409.854 553.43ZM384.408 86.1486C384.26 98.3778 396.093 109.136 409.737 109.243C423.497 109.324 435.212 98.8064 435.301 86.4153C435.361 74.0255 423.734 63.3476 410.034 63.2673C396.539 63.187 384.587 73.8377 384.41 86.1486H384.408ZM96.8536 218.992C96.9712 231.65 108.568 241.926 122.329 241.686C136.237 241.392 147.388 230.955 147.151 218.377C146.973 205.665 135.585 195.603 121.616 195.817C107.649 196.005 96.7346 206.227 96.8536 218.992ZM637.118 443.467C636.821 431.237 625.64 421.335 612.087 421.309C598.029 421.228 586.552 431.451 586.552 443.895C586.552 456.365 598.148 466.616 612.087 466.509C625.997 466.348 637.445 455.831 637.118 443.467ZM120.37 292.426C120.37 279.821 108.864 269.491 95.1032 269.625C81.5787 269.84 70.5457 279.874 70.3981 292.105C70.2217 304.816 81.312 315.092 95.2207 315.28C108.983 315.413 120.37 305.084 120.37 292.424V292.426ZM491.323 529.61C477.266 529.798 465.997 540.182 466.292 552.652C466.619 565.337 477.888 575.051 492.094 574.944C506.152 574.811 517.185 564.614 516.947 551.929C516.799 539.326 505.441 529.45 491.323 529.61ZM323.435 109.056C337.226 109.35 348.762 99.1276 348.909 86.5228C349.028 73.8649 337.788 63.4538 323.938 63.4538C310.445 63.4538 299.204 73.3819 298.907 85.6125C298.701 98.3778 309.585 108.814 323.436 109.056H323.435ZM611.376 241.419C624.929 241.74 636.97 231.248 637.118 218.886C637.326 206.575 625.64 195.95 611.849 195.924C598.148 195.896 586.463 206.495 586.522 218.831C586.7 230.901 597.882 241.098 611.376 241.419ZM560.839 529.478C574.63 529.772 586.166 519.468 586.285 506.892C586.344 494.233 575.075 483.877 561.284 483.877C547.492 483.903 536.224 494.233 536.313 506.865C536.402 519.176 547.256 529.184 560.839 529.478ZM242.143 133.087C255.993 133.058 267.173 122.65 267.114 110.019C267.025 97.4144 255.431 87.1379 241.668 87.4318C228.115 87.753 217.231 97.7886 217.142 110.099C217.082 122.73 228.41 133.114 242.144 133.087H242.143ZM94.8064 392.62C109.161 392.834 120.224 383.227 120.372 370.408C120.521 357.537 109.815 347.582 95.5777 347.553C81.7579 347.474 70.6963 357.001 70.3995 369.312C70.0139 382.238 80.7501 392.407 94.8064 392.62ZM562.026 133.329C547.762 133.061 536.58 142.722 536.343 155.433C536.135 168.386 546.811 178.289 560.987 178.369C575.283 178.528 586.255 168.761 586.315 155.942C586.315 143.472 575.697 133.57 562.026 133.329ZM267.116 552.491C267.173 539.673 256.289 529.772 242.085 529.798C228.175 529.798 217.41 539.272 217.172 551.716C216.876 564.587 227.612 574.65 241.73 574.811C255.994 574.971 267.025 565.23 267.116 552.491ZM348.821 576.444C348.968 563.571 338.173 553.723 323.909 553.723C309.732 553.723 298.848 563.624 298.907 576.497C298.996 588.888 309.673 598.655 323.463 598.816C337.788 599.004 348.732 589.315 348.821 576.444ZM458.67 528.112C458.789 516.979 449.921 508.924 437.672 508.924C425.958 508.978 416.023 517.888 416.201 528.138C416.377 537.96 426.283 546.953 437.227 547.273C448.527 547.594 458.551 538.575 458.67 528.112ZM182.385 433.858C169.869 433.59 160.823 441.245 160.704 452.298C160.497 462.948 169.869 471.968 181.317 472.182C192.437 472.395 202.995 463.056 203.084 452.913C203.233 442.958 193.594 434.126 182.383 433.86L182.385 433.858ZM617.366 331.844C617.751 321.78 608.469 312.79 597.258 312.388C584.743 312.013 575.46 319.506 574.986 330.372C574.513 341.023 583.587 350.122 595.182 350.657C606.393 351.166 616.891 342.174 617.366 331.843V331.844ZM437.999 115.745C426.255 115.691 416.261 124.362 416.231 134.638C416.172 144.754 426.61 154.093 437.821 154.067C449.032 153.987 458.522 145.396 458.671 135.174C458.849 124.015 450.1 115.826 437.999 115.745ZM160.677 210.214C160.795 220.383 170.256 229.055 181.407 229.161C192.618 229.296 203.057 219.954 203.057 209.812C203.087 199.483 193.18 190.786 181.436 190.865C169.157 190.919 160.528 198.974 160.677 210.214ZM563.51 267.324C563.361 277.546 573.741 286.806 585.071 286.645C596.636 286.457 606.007 277.438 605.712 266.789C605.445 256.378 596.161 248.376 584.478 248.511C573.148 248.617 563.599 257.181 563.51 267.324ZM501.822 479.301C490.464 479.113 480.204 488.319 480.293 498.648C480.41 508.792 489.901 517.275 501.259 517.355C513.093 517.462 522.197 509.648 522.465 499.13C522.731 488.425 513.449 479.515 501.824 479.301H501.822ZM127.877 267.136C127.699 277.493 137.783 286.725 149.2 286.645C160.38 286.565 169.841 277.974 169.958 267.725C170.109 256.806 161.003 248.483 148.903 248.511C137.485 248.511 128.113 256.887 127.877 267.137V267.136ZM253.207 498.515C253.207 488.184 243.983 479.595 232.744 479.301C221.386 479.006 211.065 488.158 211.065 498.515C211.095 508.764 220.437 517.222 231.824 517.355C244.102 517.543 253.207 509.487 253.207 498.514V498.515ZM551.883 228.76C563.213 229.054 573.505 219.848 573.356 209.571C573.179 199.428 563.54 190.973 552.239 190.998C540.704 191.027 531.42 199.348 531.331 209.597C531.184 219.766 540.584 228.49 551.883 228.758V228.76ZM573.327 452.727C573.237 442.53 563.748 434.047 552.389 434.02C540.853 433.968 531.481 442.183 531.303 452.46C531.126 462.977 541.001 471.969 552.567 471.781C563.749 471.595 573.357 462.79 573.327 452.728V452.727ZM137.988 350.283C149.257 350.177 158.748 341.532 158.836 331.364C158.868 321.06 149.584 312.658 138.135 312.497C126.777 312.39 117.109 320.712 116.783 330.855C116.458 341.185 126.482 350.39 137.989 350.283H137.988ZM501.526 144.996C490.344 145.025 480.675 153.667 480.558 163.837C480.409 174.408 490.166 183.051 502.059 182.864C513.566 182.649 522.463 174.353 522.373 163.809C522.284 153.587 512.765 144.996 501.524 144.996H501.526ZM232.414 182.864C244.011 182.835 252.996 174.649 253.026 164.131C253.085 153.8 243.861 145.21 232.592 144.996C221.056 144.781 211.15 153.802 211.327 164.345C211.535 174.701 220.907 182.917 232.414 182.862V182.864ZM367.118 556.989C378.476 556.882 387.639 548.399 387.639 538.041C387.698 527.631 378.446 519.148 367.146 519.015C355.877 518.908 346.237 527.338 345.941 537.561C345.674 548.104 355.46 557.096 367.116 556.989H367.118ZM366.88 105.631C355.521 105.684 345.942 114.033 345.675 124.204C345.409 134.586 355.194 143.525 366.968 143.525C378.565 143.525 387.639 135.416 387.817 124.979C387.966 113.98 378.92 105.631 366.88 105.631ZM605.593 395.456C605.771 384.939 596.874 376.642 585.279 376.429C573.535 376.215 563.599 384.833 563.689 395.27C563.807 405.331 573.445 414.002 584.655 414.082C595.955 414.188 605.445 405.706 605.593 395.456ZM295.438 115.853C284.019 116.174 275.034 124.71 275.27 135.095C275.508 145.317 285.176 153.8 296.355 153.667C307.952 153.534 317.206 144.542 316.849 133.891C316.523 123.56 307.033 115.56 295.436 115.853H295.438ZM149.019 414.11C160.379 414.084 169.72 405.707 169.811 395.377C169.958 384.833 161.061 376.59 149.525 376.43C137.602 376.215 128.082 384.645 128.201 395.349C128.32 405.599 137.84 414.164 149.019 414.11ZM316.879 528.034C316.969 517.49 308.129 509.301 296.535 509.141C284.879 508.979 275.597 516.955 275.27 527.339C274.973 537.882 284.583 546.874 296.179 546.848C307.418 546.818 316.82 538.311 316.88 528.034H316.879ZM232.149 469.185C241.758 469.078 249.29 462.093 249.381 453.289C249.498 444.216 242.439 437.5 232.593 437.206C222.689 436.965 214.208 444.163 214.058 452.887C213.881 461.425 222.66 469.293 232.15 469.185H232.149ZM538.033 304.737C538.211 313.514 545.923 320.444 555.502 320.444C564.903 320.444 573.711 312.362 573.445 303.986C573.118 295.637 564.814 288.519 555.502 288.519C545.211 288.519 537.886 295.343 538.033 304.737ZM453.185 500.951C462.733 501.272 471.037 493.751 471.037 484.759C471.037 475.661 464.01 469.211 453.956 469.078C443.813 468.943 435.656 475.981 435.656 484.867C435.688 493.082 443.901 500.656 453.185 500.95V500.951ZM178.913 252.712C178.646 261.248 187.335 269.278 196.825 269.223C206.79 269.197 214.441 261.972 214.233 252.712C214.086 243.693 206.79 237.297 196.825 237.323C187.246 237.323 179.12 244.308 178.913 252.712ZM397.134 144.915C387.791 144.674 378.864 152.622 378.864 161.16C378.925 169.67 386.812 176.761 396.363 176.895C406.772 177.055 414.276 170.392 414.276 161.052C414.185 152.516 406.387 145.183 397.134 144.915ZM178.203 320.312C187.455 320.419 195.819 313.06 196.055 304.656C196.293 296.254 188.404 288.761 179.003 288.493C169.424 288.199 161.268 294.996 160.854 303.559C160.378 312.391 168.533 320.233 178.201 320.313L178.203 320.312ZM537.054 269.09C546.545 269.09 554.256 261.999 554.375 253.274C554.494 244.336 547.198 237.512 537.441 237.324C527.564 237.109 519.172 244.524 519.378 253.301C519.557 261.783 527.683 269.09 537.054 269.09ZM501.732 469.079C511.134 469.186 519.112 462.149 519.261 453.478C519.499 444.699 512.171 437.581 502.533 437.286C492.57 436.992 484.473 444.11 484.473 453.183C484.441 461.773 492.243 468.971 501.733 469.079H501.732ZM280.164 500.764C290.01 500.817 297.958 493.325 297.633 484.253C297.306 475.341 289.834 468.944 279.898 469.106C270.199 469.265 262.607 476.277 262.726 484.948C262.785 493.512 270.763 500.711 280.164 500.764ZM319.519 161.321C319.608 169.911 327.378 176.816 337.047 176.87C346.834 176.898 354.396 170.126 354.544 161.349C354.663 152.731 347.07 145.505 337.521 145.184C327.882 144.89 319.4 152.463 319.519 161.321ZM337.105 517.088C346.715 517.058 354.277 510.129 354.277 501.352C354.245 492.682 346.388 485.51 336.988 485.589C327.526 485.618 319.756 492.841 319.816 501.486C319.848 510.237 327.497 517.141 337.105 517.087V517.088ZM231.971 193.943C222.243 193.943 214.355 200.902 214.355 209.465C214.355 217.947 222.333 225.041 231.911 225.041C241.579 225.069 249.29 218.136 249.29 209.465C249.29 200.687 241.787 193.943 231.971 193.943ZM453.688 162.179C444.139 162.149 436.072 169.242 436.04 177.727C436.01 186.102 444.109 193.543 453.45 193.622C462.882 193.702 470.829 186.504 470.829 177.915C470.888 169.056 463.415 162.232 453.688 162.177V162.179ZM414.125 501.565C414.185 493.029 406.355 485.697 396.925 485.562C387.731 485.456 379.396 492.841 379.249 501.244C379.13 509.622 387.196 517.008 396.628 517.061C406.266 517.169 414.008 510.29 414.125 501.566V501.565ZM555.5 373.861C564.991 373.861 572.999 366.715 572.999 358.26C573.032 349.695 565.14 342.683 555.5 342.683C545.685 342.683 538.211 349.4 538.211 358.232C538.211 366.929 545.862 373.862 555.5 373.862V373.861ZM195.908 358.392C196.057 349.91 188.227 342.79 178.558 342.71C168.831 342.603 161.061 349.374 160.914 358.043C160.823 366.634 168.565 373.726 178.203 373.834C187.693 373.94 195.76 366.929 195.908 358.392ZM554.256 409.239C554.107 400.354 546.605 393.825 536.727 393.985C527.148 394.091 519.348 401.237 519.586 409.774C519.794 418.337 527.8 425.349 537.321 425.162C539.593 425.128 541.835 424.688 543.917 423.868C546 423.048 547.883 421.864 549.457 420.384C551.031 418.904 552.265 417.157 553.089 415.245C553.913 413.332 554.309 411.291 554.256 409.239ZM262.993 178.233C263.231 186.877 271.266 193.834 280.787 193.566C290.307 193.299 297.631 186.154 297.454 177.376C297.276 168.598 289.595 162.014 279.749 162.229C270.141 162.444 262.785 169.429 262.993 178.233ZM197.214 393.931C187.485 393.77 179.685 400.46 179.449 409.131C179.211 417.748 186.863 424.974 196.442 425.188C205.99 425.403 213.881 418.498 214.058 409.827C214.206 400.916 207.03 394.119 197.212 393.931H197.214ZM501.822 193.943C491.916 193.995 484.502 200.819 484.681 209.731C484.829 218.268 492.154 224.877 501.526 225.039C511.373 225.199 519.024 218.456 519.113 209.597C519.113 200.605 511.728 193.916 501.824 193.942L501.822 193.943ZM367.741 202.104C375.483 201.729 382.185 195.173 381.828 188.349C381.412 181.39 374.177 175.316 366.584 175.529C358.754 175.77 352.171 181.979 352.201 189.017C352.29 196.35 359.555 202.532 367.741 202.104ZM479.964 247.439C479.875 254.422 486.727 260.712 494.438 260.819C502.119 260.925 509.147 254.69 509.237 247.733C509.296 240.775 502.444 234.38 494.705 234.352C487.112 234.272 480.053 240.562 479.964 247.438V247.439ZM459.263 433.243C451.493 433.458 444.732 439.719 444.85 446.624C444.999 453.609 451.849 459.577 459.679 459.63C467.716 459.63 474.33 453.824 474.449 446.704C474.538 439.265 467.539 433.03 459.263 433.243ZM201.958 287.045C201.781 294.217 209.105 300.668 217.32 300.48C225.209 300.32 231.733 294.217 231.614 287.098C231.497 280.061 224.795 274.145 216.876 274.119C209.105 274.094 202.167 280.141 201.958 287.045ZM273.905 459.63C282.24 459.736 288.349 454.357 288.498 446.784C288.674 439.318 282.477 433.404 274.44 433.243C266.402 433.136 259.878 438.944 259.76 446.275C259.7 453.928 265.542 459.471 273.905 459.63ZM494.525 427.917C502.622 427.97 509.266 422.029 509.148 414.831C509.058 407.605 502.295 401.852 494.17 402.04C486.341 402.2 480.083 407.847 479.963 414.751C479.815 422.003 486.251 427.891 494.525 427.917ZM531.36 287.392C531.392 279.739 525.488 274.226 517.153 274.119C508.82 274.039 502.741 279.471 502.652 287.073C502.503 294.485 508.762 300.426 516.799 300.48C524.896 300.586 531.301 294.779 531.362 287.394L531.36 287.392ZM317.742 479.969C325.423 480.237 332.45 474.163 332.688 467.124C332.866 460.005 326.431 453.743 318.602 453.475C310.713 453.183 304.07 459.043 303.832 466.321C303.624 473.654 309.764 479.702 317.742 479.969ZM208.781 344.369C216.818 344.529 223.55 338.59 223.611 331.363C223.668 324.352 217.589 318.597 209.791 318.303C201.694 317.982 194.812 323.655 194.487 330.882C194.279 337.973 200.892 344.263 208.78 344.369H208.781ZM303.771 196.405C304.098 203.55 310.208 208.769 318.127 208.769C326.461 208.769 332.718 203.096 332.66 195.682C332.482 188.296 326.075 182.758 317.742 182.864C309.556 183.051 303.506 188.911 303.773 196.405H303.771ZM401.552 196.539C401.908 203.685 408.047 208.796 416.085 208.634C423.972 208.447 429.994 202.988 430.024 195.897C430.055 188.591 423.558 182.837 415.344 182.971C407.129 183.13 401.197 189.018 401.552 196.539ZM274.472 229.081C282.123 228.947 288.263 223.274 288.35 216.235C288.439 209.117 282.597 203.551 274.767 203.338C266.494 203.042 259.998 208.582 259.998 216.023C259.938 223.382 266.464 229.27 274.47 229.082L274.472 229.081ZM460.274 203.311C452.028 203.015 445.445 208.662 445.356 216.021C445.356 222.979 451.553 228.841 459.206 229.081C466.919 229.375 474.094 223.193 474.154 216.209C474.184 209.305 468.014 203.551 460.274 203.311ZM239.535 234.487C231.793 234.354 224.706 240.749 224.826 247.734C224.944 254.558 231.438 260.446 239.002 260.58C247.008 260.713 253.593 254.719 253.474 247.413C253.356 240.455 247.097 234.622 239.535 234.487ZM253.444 414.699C253.355 407.661 247.216 402.148 239.357 402.067C231.262 402.015 224.648 408.008 224.825 415.208C224.974 422.192 231.201 427.652 239.06 427.758C247.335 427.865 253.593 422.22 253.444 414.699ZM366.973 486.634C375.009 486.634 381.475 480.533 381.18 473.252C380.94 466.161 374.772 460.889 366.824 460.916C358.935 460.996 352.677 466.43 352.469 473.36C352.202 480.372 359.112 486.661 366.971 486.633L366.973 486.634ZM531.154 374.958C531.006 367.892 524.807 362.326 517.096 362.247C509.059 362.221 502.654 368.188 502.803 375.52C502.979 382.906 509.535 388.365 517.75 388.044C525.609 387.75 531.303 382.183 531.154 374.958ZM430.022 466.803C430.054 459.631 423.203 453.475 415.342 453.637C407.661 453.851 401.551 459.578 401.522 466.643C401.491 474.002 408.017 479.916 416.085 479.728C423.617 479.542 429.994 473.654 430.024 466.803H430.022ZM539.133 330.801C538.806 323.79 532.458 318.411 524.601 318.464C516.801 318.546 510.454 324.111 510.306 331.016C510.098 338.028 517.097 344.37 524.897 344.289C532.785 344.237 539.428 337.947 539.133 330.801ZM216.491 388.071C224.618 388.232 231.349 382.371 231.32 375.226C231.26 368.535 224.707 362.515 217.293 362.328C209.67 362.112 203.057 367.653 202.613 374.503C202.168 381.916 208.275 387.911 216.491 388.071ZM239.002 301.98C232.417 301.792 226.397 307.118 226.397 313.059C226.486 318.653 231.973 323.549 238.408 323.657C245.14 323.79 251.131 318.626 250.952 312.792C250.895 307.172 245.289 302.113 239.002 301.98ZM238.615 338.803C232.181 338.884 226.634 343.834 226.605 349.481C226.574 355.422 232.655 360.641 239.268 360.346C245.586 360.105 251.042 354.886 250.834 349.266C250.658 343.62 244.993 338.749 238.616 338.803H238.615ZM458.998 259.403C465.492 259.268 471.158 253.648 470.772 247.787C470.356 242.249 464.514 237.405 458.406 237.538C452.237 237.698 446.691 242.703 446.603 248.296C446.513 254.131 452.534 259.563 458.999 259.403H458.998ZM308.428 446.678C315.368 446.01 319.638 442.237 320.172 435.84C320.646 430.086 314.389 424.548 307.953 424.574C301.577 424.626 295.527 430.167 295.674 435.866C295.793 441.647 302.111 447.24 308.428 446.678ZM347.427 457.865C353.596 457.464 358.933 452.165 358.695 446.678C358.459 440.817 352.142 435.626 345.796 436.08C339.567 436.509 334.347 441.728 334.555 447.32C334.793 453.155 341.02 458.266 347.426 457.865H347.427ZM334.467 215.567C334.467 221.829 339.833 226.405 347.07 226.218C353.388 226.084 358.933 221.187 358.933 215.62C359.023 209.706 353.002 204.675 346.181 204.862C339.538 205.077 334.466 209.679 334.466 215.567H334.467ZM263.169 384.566C263.229 378.973 257.594 373.835 251.395 373.727C245.167 373.648 239.473 378.732 239.384 384.326C239.326 389.972 244.901 395.138 251.128 395.165C257.387 395.244 263.052 390.213 263.171 384.566H263.169ZM459.233 424.816C465.846 424.602 470.947 419.893 470.917 414.058C470.858 407.823 465.372 403.245 458.195 403.46C451.849 403.675 446.361 408.679 446.391 414.191C446.391 420.052 452.412 425.03 459.233 424.816ZM470.799 277.842C470.768 284.479 474.477 288.225 481.832 288.654C488.979 289.135 494.405 284.639 494.525 278.35C494.644 272.329 489.928 267.754 483.286 267.486C475.989 267.19 470.828 271.365 470.799 277.842ZM483.196 395.378C489.601 395.03 494.554 390.027 494.348 384.085C494.17 378.225 488.682 373.408 482.396 373.514C475.752 373.621 470.385 379.053 470.829 385.235C471.245 390.989 477.027 395.698 483.196 395.378ZM307.566 216.317C301.161 216.506 295.763 221.483 295.822 227.076C295.971 232.776 301.516 237.539 307.922 237.513C314.832 237.513 320.437 232.321 320.021 226.326C319.666 220.493 314.209 216.104 307.566 216.317ZM387.611 205.131C380.909 204.971 375.629 209.306 375.392 215.22C375.154 221 380.344 225.898 386.84 226.113C393.424 226.299 398.733 221.858 398.971 215.97C399.178 210.056 394.195 205.319 387.611 205.131ZM425.868 216.424C419.166 216.424 414.241 220.866 414.241 226.887C414.184 232.909 419.166 237.406 425.839 237.406C432.481 237.432 437.464 232.963 437.494 226.943C437.463 220.894 432.541 216.424 425.868 216.424ZM398.854 447.08C398.854 441.113 393.665 436.321 387.258 436.268C380.912 436.242 375.455 441.193 375.425 446.893C375.365 452.539 380.912 457.651 387.139 457.677C393.457 457.757 398.854 452.887 398.854 447.08ZM263.469 413.735C263.291 419.81 268.036 424.333 274.708 424.548C281.5 424.734 286.512 420.534 286.72 414.458C286.957 408.33 282.212 403.807 275.509 403.619C268.807 403.433 263.707 407.714 263.467 413.737L263.469 413.735ZM495.328 302.514C488.655 302.408 483.525 306.85 483.436 312.791C483.382 315.594 484.559 318.303 486.71 320.324C488.861 322.345 491.811 323.514 494.914 323.575C501.438 323.683 506.628 319.159 506.747 313.191C506.836 307.17 501.973 302.621 495.328 302.514ZM251.606 267.618C245.14 267.43 239.595 272.086 239.387 277.787C239.149 283.487 244.488 288.411 250.953 288.599C257.479 288.733 262.964 284.209 263.202 278.403C263.41 272.756 258.071 267.805 251.607 267.618H251.606ZM437.437 435.841C437.556 429.953 432.455 425.028 426.078 424.868C419.791 424.762 414.334 429.633 414.246 435.439C414.068 441.246 419.346 446.278 425.604 446.411C431.862 446.572 437.319 441.7 437.437 435.84V435.841ZM483.436 349.668C483.468 355.448 488.804 360.265 495.152 360.265C501.675 360.239 506.718 355.61 506.747 349.615C506.778 343.619 501.765 339.097 495.12 339.097C488.567 339.097 483.436 343.754 483.436 349.668ZM275.183 237.698C268.896 237.645 263.558 242.569 263.528 248.376C263.469 254.21 268.807 259.135 275.064 259.16C281.381 259.214 286.749 254.317 286.749 248.483C286.717 242.622 281.469 237.698 275.183 237.698Z" fill="#C4C4C4" fill-opacity="0.26"/>
</svg>
